<svg xmlns="http://www.w3.org/2000/svg" width="1100" height="620" viewBox="0 0 1100 620" role="img" aria-labelledby="title desc">
<title id="title">Healthcare clinic logical network topology</title><desc id="desc">A router and switch connect six isolated clinic network zones.</desc>
<style>.bg{fill:#f8fafc}.box{fill:#fff;stroke:#164e63;stroke-width:2}.core{fill:#cffafe;stroke:#0e7490;stroke-width:3}.zone{fill:#ecfeff;stroke:#0891b2;stroke-width:2}.guest{fill:#fff7ed;stroke:#ea580c;stroke-width:2}.t{font:600 18px Arial;fill:#0f172a}.s{font:14px Arial;fill:#334155}.line{stroke:#64748b;stroke-width:3}</style>
<rect class="bg" width="1100" height="620" rx="20"/><text x="550" y="38" text-anchor="middle" class="t">Riverside Community Clinic — Proposed Segmented Lab</text>
<rect x="455" y="65" width="190" height="65" rx="12" class="box"/><text x="550" y="94" text-anchor="middle" class="t">Simulated Internet</text><text x="550" y="116" text-anchor="middle" class="s">optional test network</text>
<line x1="550" y1="130" x2="550" y2="165" class="line"/><rect x="455" y="165" width="190" height="65" rx="12" class="core"/><text x="550" y="193" text-anchor="middle" class="t">R-EDGE</text><text x="550" y="215" text-anchor="middle" class="s">gateways + proposed ACLs</text>
<line x1="550" y1="230" x2="550" y2="265" class="line"/><rect x="455" y="265" width="190" height="65" rx="12" class="core"/><text x="550" y="293" text-anchor="middle" class="t">SW-ACCESS</text><text x="550" y="315" text-anchor="middle" class="s">802.1Q trunk + VLAN access</text>
<path d="M550 330 V375 M120 375 H980 M120 375 V420 M292 375 V420 M464 375 V420 M636 375 V420 M808 375 V420 M980 375 V420" fill="none" class="line"/>
<g><rect x="40" y="420" width="160" height="95" rx="12" class="zone"/><text x="120" y="451" text-anchor="middle" class="t">Administration</text><text x="120" y="478" text-anchor="middle" class="s">VLAN 10</text><text x="120" y="499" text-anchor="middle" class="s">10.10.10.0/24</text></g>
<g><rect x="212" y="420" width="160" height="95" rx="12" class="zone"/><text x="292" y="451" text-anchor="middle" class="t">Clinical</text><text x="292" y="478" text-anchor="middle" class="s">VLAN 20</text><text x="292" y="499" text-anchor="middle" class="s">10.10.20.0/24</text></g>
<g><rect x="384" y="420" width="160" height="95" rx="12" class="zone"/><text x="464" y="451" text-anchor="middle" class="t">IT Management</text><text x="464" y="478" text-anchor="middle" class="s">VLAN 30</text><text x="464" y="499" text-anchor="middle" class="s">10.10.30.0/24</text></g>
<g><rect x="556" y="420" width="160" height="95" rx="12" class="zone"/><text x="636" y="451" text-anchor="middle" class="t">Staff Wi-Fi</text><text x="636" y="478" text-anchor="middle" class="s">VLAN 40</text><text x="636" y="499" text-anchor="middle" class="s">10.10.40.0/24</text></g>
<g><rect x="728" y="420" width="160" height="95" rx="12" class="guest"/><text x="808" y="451" text-anchor="middle" class="t">Guest Wi-Fi</text><text x="808" y="478" text-anchor="middle" class="s">VLAN 50</text><text x="808" y="499" text-anchor="middle" class="s">10.10.50.0/24</text></g>
<g><rect x="900" y="420" width="160" height="95" rx="12" class="zone"/><text x="980" y="451" text-anchor="middle" class="t">Services</text><text x="980" y="478" text-anchor="middle" class="s">VLAN 60</text><text x="980" y="499" text-anchor="middle" class="s">10.10.60.0/24</text></g>
<text x="550" y="570" text-anchor="middle" class="s">Conceptual portfolio design — build and test before marking extensions as implemented</text></svg>
